<svg width="313" height="313" viewBox="0 0 313 313" fill="none" xmlns="http://www.w3.org/2000/svg">
<path d="M191 191C196 199 199.002 202.095 217.002 215.095L193 218.094L142.5 215.095L92.0013 193.095C86.0013 170.761 74.8013 123.494 78.0013 113.094C82.0013 100.094 86.4646 90.2714 116.001 71.5944C137.5 58.0002 176.001 53.4278 191.501 54.0944C188.501 56.2611 179.201 63.7944 166.001 76.5944C152.801 89.3944 139.501 105.594 134.501 112.094C134.668 112.094 136.069 111.81 137.5 111.094C140.499 109.594 139.001 109.594 153.001 98.5944C167.001 87.5944 182.098 83.199 215.001 80.0946C242.5 77.5001 278.5 88.5001 307.501 100.095C290.835 105.761 268.735 110.08 245.501 120.595C226.96 128.986 213.498 133.406 200 146C185.252 159.761 188.557 187.091 191 191Z" fill="#B61C1C"/>
<path d="M204 242.594C197.667 245.094 181.8 246.394 169 231.594L192 225.094C195.333 229.261 203.1 236.394 207.5 231.594C211.9 226.794 219.667 225.261 223 225.094C218.667 228.428 210.3 235.994 211.5 239.594C212.7 243.194 218 247.094 220.5 248.594C216.1 250.194 207.667 245.261 204 242.594Z" fill="#981412"/>
<path d="M223.5 247.094C220.333 248.261 208.9 246.994 188.5 232.594C192.333 227.469 201 219.094 205 226.594C210 235.969 217.002 240.594 222 242.094C226.998 243.594 227.5 241.094 233 236.594C237.4 232.994 241.167 235.761 242.5 237.594C238 238.761 229.2 242.494 230 248.094C230.8 253.694 237.333 255.428 240.5 255.594C231.7 262.394 225.5 252.761 223.5 247.094Z" fill="#B41B16"/>
<path d="M203 205C131 189.5 110.952 164.457 112.5 157C118.416 128.5 153.001 114.261 165.001 100.594C165.001 104.994 168.001 107.761 169.501 108.594C171.501 106.594 173.668 101.761 174.501 99.5942C175.701 102.794 179.001 106.261 180.501 107.594C185.001 102.594 183.5 95 184.5 93.5C185.5 92 202.5 86 226 85C244.8 84.2 290.167 96.3333 303.5 101.5C290 105.5 264.5 114 246 121C231.8 126.373 210.5 136.5 200 146.5C184.543 161.221 188.5 189 203 205Z" fill="#991312"/>
<path d="M134.5 112C130 118 128.501 119.594 106.001 139.594C99.3341 138.761 86 133.594 86 119.594C86 105.594 91 100.428 93.5 99.5942C93.9 103.994 97.3335 108.094 99.0003 109.594C98.2003 105.594 98.667 98.2609 99.0003 95.0942C99.8003 98.6942 103.334 104.261 105.001 106.594C104.168 101.261 102.701 89.8942 103.501 87.0942C104.501 83.5942 104.361 81.3193 123 72C152 57.5 177.333 57 188.5 56.5C174.5 66.5 139 106 134.5 112Z" fill="#991312"/>
<path d="M103.5 99.5942C81.6667 107.928 33.6 136.7 8 197.5C20.5 186.667 55 174.5 65.5 169.5C68.5 179.5 37.5 200.094 26 212.094C39 206.094 66.5 192.894 72.5 188.094C80 182.094 83.3344 194.196 99.5 208.094C118 224 144 229.793 176.5 232.594C199.7 234.594 210 222.094 217.5 215.094C193 215.094 170.378 211.667 145.5 199C108 179.906 106.833 171.833 93.5 160.5C95 156.5 94.4 156.3 96 141.5C97.6 126.7 133.167 93.7609 148.5 82.0942L103.5 99.5942Z" fill="#D32F2E"/>
<circle cx="53" cy="152.094" r="8.5" fill="white"/>
<circle cx="52" cy="154.094" r="4.5" fill="#000500"/>
</svg>
